<?xml version="1.0" encoding="UTF-8"?>
<svg width="24px" height="24px" viewBox="0 0 24 24" version="1.1" xmlns="http://www.w3.org/2000/svg" xmlns:xlink="http://www.w3.org/1999/xlink">
    <!-- Generator: Sketch 53.2 (72643) - https://sketchapp.com -->
    <title>icon / 左导航 / 财务</title>
    <desc>Created with Sketch.</desc>
    <g id="四、系统管理" stroke="none" stroke-width="1" fill="none" fill-rule="evenodd">
        <g id="修改内容说明" transform="translate(-388.000000, -512.000000)">
            <g id="icon-/-左导航-/-财务-2" transform="translate(388.000000, 512.000000)">
                <g id="icon-/-左导航-/-财务">
                    <polygon id="Rectangle-46" points="0 0 24 0 24 24 0 24"></polygon>
                    <g id="bank" stroke-width="1" fill-rule="evenodd" transform="translate(4.000000, 5.000000)" fill="#666666">
                        <path d="M15.8066838,7.36715084 L8.4652385,0.187709497 C8.33727506,0.0625698324 8.16909454,0 7.99908598,0 C7.83090546,0 7.66272494,0.0625698324 7.53293345,0.187709497 L0.193316195,7.36715084 C-0.0644387318,7.61921788 -0.0644387318,8.02681564 0.193316195,8.27709497 C0.451071123,8.52916201 0.867866324,8.52916201 1.1237932,8.27709497 L8.00091402,1.55173184 L14.8762068,8.27709497 C15.1339617,8.52916201 15.5507569,8.52916201 15.8066838,8.27709497 C16.0644387,8.02502793 16.0644387,7.61921788 15.8066838,7.36715084 Z M13.766581,9.63575419 C13.4027992,9.63575419 13.1084833,9.92357542 13.1084833,10.2793296 L13.1084833,14.7128492 L2.87140817,14.7128492 L2.87140817,10.2793296 C2.87140817,9.92357542 2.57709226,9.63575419 2.21331048,9.63575419 C1.84952871,9.63575419 1.5552128,9.92357542 1.5552128,10.2793296 L1.5552128,14.7128492 C1.5552128,15.4243575 2.14384462,16 2.87140817,16 L13.1084833,16 C13.8360468,16 14.4246787,15.4243575 14.4246787,14.7128492 L14.4246787,10.2793296 C14.4246787,9.92357542 14.1303628,9.63575419 13.766581,9.63575419 Z M4.4800914,8.45586592 L4.4800914,8.5273743 C4.4800914,8.86346369 4.75795487,9.13519553 5.10162811,9.13519553 L7.33184804,9.13519553 L7.33184804,10.2793296 L5.68660383,10.2793296 C5.34293059,10.2793296 5.06506712,10.5510615 5.06506712,10.8871508 L5.06506712,10.9586592 C5.06506712,11.2947486 5.34293059,11.5664804 5.68660383,11.5664804 L7.33184804,11.5664804 L7.33184804,13.0681564 C7.33184804,13.4239106 7.62616395,13.7117318 7.98994573,13.7117318 C8.35372751,13.7117318 8.64804342,13.4239106 8.64804342,13.0681564 L8.64804342,11.5664804 L10.2932876,11.5664804 C10.6369609,11.5664804 10.9148243,11.2947486 10.9148243,10.9586592 L10.9148243,10.8871508 C10.9148243,10.5510615 10.6369609,10.2793296 10.2932876,10.2793296 L8.64804342,10.2793296 L8.64804342,9.13519553 L10.8782634,9.13519553 C11.2219366,9.13519553 11.4998001,8.86346369 11.4998001,8.5273743 L11.4998001,8.45586592 C11.4998001,8.11977654 11.2219366,7.84804469 10.8782634,7.84804469 L8.41222508,7.84804469 C8.42502142,7.83731844 8.43781777,7.82659218 8.45061411,7.81407821 L10.0026278,6.29631285 C10.2603827,6.04424581 10.2603827,5.63664804 10.0026278,5.38636872 C9.74487289,5.13430168 9.32807769,5.13430168 9.07215081,5.38636872 L7.98628963,6.44826816 L6.90042845,5.38636872 C6.64267352,5.13430168 6.22587832,5.13430168 5.96995144,5.38636872 C5.71219652,5.63843575 5.71219652,6.04603352 5.96995144,6.29631285 L7.52196515,7.81407821 C7.5347615,7.82659218 7.54755784,7.83731844 7.56035418,7.84804469 L5.10162811,7.84804469 C4.75795487,7.84804469 4.4800914,8.11977654 4.4800914,8.45586592 Z" id="Shape" fill-rule="nonzero"></path>
                    </g>
                </g>
            </g>
        </g>
    </g>
</svg>