<?xml version="1.0" encoding="UTF-8"?>
<svg width="24px" height="24px" viewBox="0 0 24 24" version="1.1" xmlns="http://www.w3.org/2000/svg" xmlns:xlink="http://www.w3.org/1999/xlink">
    <!-- Generator: Sketch 53.2 (72643) - https://sketchapp.com -->
    <title>icon / 左导航 / down</title>
    <desc>Created with Sketch.</desc>
    <g id="四、系统管理" stroke="none" stroke-width="1" fill="none" fill-rule="evenodd">
        <g id="修改内容说明" transform="translate(-560.000000, -512.000000)" fill="#666666">
            <g id="icon-/-左导航-/-down-2" transform="translate(560.000000, 512.000000)">
                <g id="icon-/-左导航-/-down">
                    <g id="down" transform="translate(6.000000, 9.000000)">
                        <path d="M11.5,0.513145522 C11.5,0.625816759 11.4541262,0.739661654 11.3623785,0.834728009 L6.47538105,5.80869363 C6.35639578,5.92958048 6.1772011,6 5.98653795,6 C5.79730837,6 5.61668013,5.92958048 5.49912841,5.80869363 L0.637935019,0.855853866 C0.421467841,0.635206028 0.464474565,0.312449883 0.73398337,0.135227417 C1.00349218,-0.0419950484 1.39772048,-0.00678528708 1.61418766,0.213862551 L5.98797151,4.66907102 L10.3861258,0.191563035 C10.602593,-0.0290848026 10.9968213,-0.064294564 11.2663301,0.112927902 C11.4197208,0.215036209 11.5,0.362917207 11.5,0.513145522 Z" id="Shape" fill-rule="nonzero"></path>
                    </g>
                </g>
            </g>
        </g>
    </g>
</svg>