<?xml version="1.0" encoding="UTF-8"?>
<svg width="102px" height="34px" viewBox="0 0 102 34" version="1.1" xmlns="http://www.w3.org/2000/svg" xmlns:xlink="http://www.w3.org/1999/xlink">
    <!-- Generator: Sketch 54 (76480) - https://sketchapp.com -->
    <title>logo</title>
    <desc>Created with Sketch.</desc>
    <defs>
        <polygon id="path-1" points="0 0 102 0 102 35 0 35"></polygon>
    </defs>
    <g id="四、系统管理" stroke="none" stroke-width="1" fill="none" fill-rule="evenodd">
        <g id="修改内容说明" transform="translate(-192.000000, -504.000000)">
            <g id="logo-2" transform="translate(192.000000, 504.000000)">
                <g id="logo" transform="translate(0.000000, 1.000000)">
                    <mask id="mask-2" fill="white">
                        <use xlink:href="#path-1"></use>
                    </mask>
                    <g id="Clip-1"></g>
                    <text id="www.ycxc.com" mask="url(#mask-2)" font-family="MicrosoftYaHei-Bold, Microsoft YaHei" font-size="7" font-weight="bold" fill="#4D7CFE">
                        <tspan x="23" y="31">www.ycxc.com</tspan>
                    </text>
                    <path d="M51.6994903,22.9647616 L55.0304662,22.9089037 C55.1064025,23.1939225 55.6204329,23.2053805 55.6204329,23.2053805 L59.5457565,23.1609806 C59.5457565,23.1609806 59.9385809,21.9664796 60.2656912,21.4680548 C60.5942618,20.9696299 60.0948345,20.9510106 60.0948345,20.9510106 L55.9490036,20.9266622 C55.0304662,20.9896815 55.0494502,21.4809451 55.0494502,21.4809451 L51.7798076,21.4236549 L51.6688237,20.7934625 C51.6688237,20.7934625 51.6396175,20.0830638 50.846667,20.0930896 C50.055177,20.1031154 50.1223514,20.8793978 50.1223514,20.8793978 L50.3428588,22.1412148 C50.8013973,23.0134583 51.6994903,22.9647616 51.6994903,22.9647616 L51.6994903,22.9647616 Z M16.9746879,27.1383538 L16.291261,26.3491811 C16.3818005,26.1730137 16.4343718,25.9739302 16.440213,25.7648209 L17.4419883,25.5041504 C17.4478296,25.5771954 17.4522105,25.6502404 17.4522105,25.7232855 C17.4522105,26.2202781 17.291576,26.718703 16.9746879,27.1383538 L16.9746879,27.1383538 Z M14.9813595,28.1137197 C14.6703127,28.1137197 14.3578055,28.0564295 14.0642824,27.9432813 L14.6615508,27.1140054 C14.7623124,27.1354893 14.8659947,27.1455151 14.9725976,27.1455151 C15.2018669,27.1455151 15.4179934,27.0953861 15.6122151,27.0037218 L16.2693563,27.7642494 C15.8750716,27.9962747 15.4296759,28.1137197 14.9813595,28.1137197 L14.9813595,28.1137197 Z M13.2625702,27.4391274 C13.252348,27.4305339 13.2435861,27.4219403 13.2348242,27.4133468 C12.7529206,26.9464316 12.5119688,26.3362908 12.5119688,25.7232855 C12.5119688,25.608705 12.5207307,25.4926924 12.5382545,25.3781119 L13.5035219,25.7032339 C13.5035219,25.7103952 13.5020616,25.7175565 13.5020616,25.7247177 C13.5020616,26.0698913 13.6305692,26.387852 13.8437751,26.6341999 L13.2625702,27.4391274 Z M13.2348242,24.0346564 C13.6028233,23.6794571 14.0584412,23.4588897 14.5345035,23.3743867 L14.5199004,24.3726687 C14.2453614,24.458604 14.0044096,24.6204488 13.8262513,24.8338549 L12.8551426,24.5058684 C12.9588249,24.3382945 13.0858722,24.1793142 13.2348242,24.0346564 L13.2348242,24.0346564 Z M15.7319608,25.7247177 C15.7319608,26.130046 15.3917077,26.4594647 14.9725976,26.4594647 C14.5520273,26.4594647 14.2117741,26.130046 14.2117741,25.7247177 C14.2117741,25.3193895 14.5520273,24.9899707 14.9725976,24.9899707 C15.3917077,24.9899707 15.7319608,25.3193895 15.7319608,25.7247177 L15.7319608,25.7247177 Z M15.491009,23.3858447 C15.9451666,23.4775091 16.3774195,23.6937796 16.7293552,24.0346564 C16.9118944,24.2108238 17.0593861,24.408475 17.1718303,24.6175843 L16.1554518,24.8811193 C15.9845951,24.6591197 15.7494846,24.4858168 15.4749456,24.3898557 L15.491009,23.3858447 Z M7.82582178,27.1383538 L7.14239491,26.3491811 C7.23293437,26.1730137 7.28550567,25.9739302 7.29280724,25.7648209 L8.29312221,25.5041504 C8.30042378,25.5771954 8.3033444,25.6502404 8.3033444,25.7232855 C8.3033444,26.2202781 8.1441702,26.718703 7.82582178,27.1383538 L7.82582178,27.1383538 Z M5.83395373,28.1137197 C5.52144657,28.1137197 5.21039973,28.0564295 4.91541633,27.9432813 L5.514145,27.1140054 C5.61344634,27.1354893 5.71712862,27.1455151 5.82373153,27.1455151 C6.0530008,27.1455151 6.27058756,27.0953861 6.46334899,27.0037218 L7.12195052,27.7642494 C6.72766579,27.9962747 6.28080976,28.1137197 5.83395373,28.1137197 L5.83395373,28.1137197 Z M4.11370404,27.4391274 C4.10494216,27.4305339 4.09618028,27.4219403 4.08741839,27.4133468 C3.60405452,26.9464316 3.36310274,26.3362908 3.36310274,25.7232855 C3.36310274,25.608705 3.37186462,25.4926924 3.38938839,25.3781119 L4.35465582,25.7032339 L4.35465582,25.7247177 C4.35465582,26.0698913 4.48170313,26.387852 4.69490895,26.6341999 L4.11370404,27.4391274 Z M4.08741839,24.0346564 C4.45395716,23.6794571 4.91103539,23.4588897 5.3870977,23.3743867 L5.37103425,24.3726687 C5.09649525,24.458604 4.85700378,24.6204488 4.67884549,24.8338549 L3.7077368,24.5058684 C3.81141908,24.3382945 3.93700607,24.1793142 4.08741839,24.0346564 L4.08741839,24.0346564 Z M5.82373153,24.9899707 C6.24430191,24.9899707 6.58309472,25.3193895 6.58309472,25.7247177 C6.58309472,26.130046 6.24430191,26.4594647 5.82373153,26.4594647 C5.40316115,26.4594647 5.06290803,26.130046 5.06290803,25.7247177 C5.06290803,25.3193895 5.40316115,24.9899707 5.82373153,24.9899707 L5.82373153,24.9899707 Z M6.34214294,23.3858447 C6.79630054,23.4775091 7.22855343,23.6937796 7.58048906,24.0346564 C7.76302829,24.2108238 7.91051999,24.408475 8.02442446,24.6175843 L7.00658573,24.8811193 C6.83718933,24.6591197 6.60061849,24.4858168 6.3275398,24.3898557 L6.34214294,23.3858447 Z M87.030323,8.78543349 C84.4499485,8.78543349 84.8529951,9.32682602 84.3229012,11.2875836 C83.884807,12.7040842 83.3050624,14.5789065 82.7048734,16.5181802 L75.7917478,16.5181802 L76.5642538,14.0160301 L72.9485168,14.0160301 L72.1745505,16.5181802 L67.8082121,16.5181802 L70.9216012,12.8043421 L71.0428072,12.6324714 L81.0357347,12.6324714 C82.8290001,12.6324714 83.7270931,10.0143086 83.7270931,10.0143086 L72.8959455,10.0143086 L73.0156912,9.84673472 L73.6655309,9.01316209 L69.8920799,9.01316209 L69.161923,9.84673472 L69.0392567,10.0143086 L56.1797331,10.0143086 L56.5973829,8.85847851 L52.9013286,8.85847851 L50.3209541,15.9853812 L54.0170084,15.9853812 L54.4740866,14.7206997 L55.0494502,15.6129948 L52.200378,17.4892494 C51.921458,17.526488 51.772506,17.6697135 51.6921888,17.8243971 L44.9002692,22.2944661 L47.4499771,13.6479405 L46.1970278,13.7668177 L47.9859123,8.86134303 L44.8184916,8.86134303 L41.9037052,16.5181802 L35.5338163,16.5181802 L36.3063223,14.0160301 L32.689125,14.0160301 L31.9166189,16.5181802 L27.5502806,16.5181802 L30.6636697,12.8043421 L40.771962,12.8043421 C42.517037,12.8043421 43.2939239,10.0844891 43.2939239,10.0844891 L32.5095064,10.0844891 L33.4075994,9.01316209 L29.6341484,9.01316209 L28.6571985,10.0844891 L26.8858378,10.0844891 C25.1568263,10.0844891 24.6880655,12.8043421 24.6880655,12.8043421 L26.7325049,12.8043421 L23.5168938,16.5940898 L22.6742927,19.0862141 L31.0491925,19.0862141 L30.5979556,20.5972435 L15.5640247,20.5972435 C14.8148837,20.6488047 14.3475833,20.5485468 14.1650441,20.2936054 L13.1413641,18.8226791 L18.5985569,18.8226791 C20.0661723,18.8226791 20.7715038,16.7759862 20.7715038,16.7759862 L13.4407284,16.7759862 L13.8379338,15.3909952 L19.664586,15.3909952 C21.009535,15.3909952 21.6068033,13.3443023 21.6068033,13.3443023 L14.42498,13.3443023 L14.7506299,12.2070916 L20.5802027,12.2070916 C21.9616596,12.2070916 22.5895945,10.1603986 22.5895945,10.1603986 L21.4315657,10.1603986 C21.6988031,10.0214699 21.9675009,9.87394757 22.2405795,9.71210271 C27.1954244,6.76165666 29.1464036,5.74905211 38.3113332,5.47119457 C47.4762627,5.19190477 46.9271847,0.329397799 64.6670771,0.918054755 C82.4069694,1.50814397 99.7701008,4.27669359 99.7701008,4.27669359 C99.7701008,4.27669359 86.5849273,1.24174447 73.8261654,-0.254962391 C61.0674035,-1.75023699 54.5105944,-0.867967688 47.3024854,1.2632283 C40.0958367,3.39442429 41.9986256,4.61613812 35.3512771,5.07732434 C29.1244989,5.50843321 27.0464723,3.82839766 15.7305005,10.1603986 L10.0411179,10.1603986 L10.4120376,9.01316209 L6.92042721,9.01316209 L6.39325392,10.1603986 L5.90550911,10.1603986 C4.74894056,10.1603986 4.26703699,12.2070916 4.26703699,12.2070916 L10.5142595,12.2070916 L10.1637842,13.3443023 L5.39585958,13.3443023 C4.00856145,13.3443023 3.36018211,15.3909952 3.36018211,15.3909952 L9.53146833,15.3909952 L9.24962776,16.7759862 L4.36049708,16.7759862 C3.03599244,16.7759862 2.44748597,18.8226791 2.44748597,18.8226791 L8.38074104,18.8226791 L6.99052228,20.2191281 C6.54512656,20.4726373 6.06030237,20.5972435 5.53751002,20.5972435 L1.8692017,20.5972435 C0.568062078,20.5972435 0,22.719846 0,22.719846 L3.168881,22.719846 C3.09002405,22.7857297 3.01408773,22.8530457 2.93961173,22.9246585 C2.85491353,23.0077293 2.77459627,23.0922324 2.69719963,23.1795999 L2.35402588,22.98911 L1.796186,24.2853011 L1.98018555,24.3884235 C1.9013286,24.598965 1.84291605,24.8152356 1.80348757,25.0329384 L1.4048219,25.0329384 L1.59174207,26.4265229 L1.80494789,26.4265229 C1.84583667,26.6456579 1.90570954,26.8604962 1.98456649,27.0710378 L1.63993242,27.26296 L2.52196197,28.3801192 L2.70596152,28.2769968 C2.77897721,28.3614999 2.85783415,28.4431384 2.93961173,28.5233447 C3.02284962,28.603551 3.10754782,28.6780283 3.19370633,28.7496411 L2.99510365,29.0819243 L4.33713206,29.6218846 L4.44227465,29.4471494 C4.65986141,29.5244912 4.88328943,29.5817814 5.10963807,29.6204523 L5.10963807,30 L6.55096782,29.8195358 L6.55096782,29.6204523 C6.77877677,29.5817814 7.0036651,29.5244912 7.22271218,29.4485817 L7.41693391,29.7722714 L8.57058183,28.9200795 L8.46982018,28.7510733 C8.55889932,28.6794606 8.64505784,28.603551 8.72829573,28.5233447 C8.8100733,28.4431384 8.88893025,28.3600676 8.96340625,28.2755645 L9.29635781,28.4617577 L9.855658,27.1641344 L9.68480128,27.0681733 C9.76365823,26.8547672 9.8235311,26.6370644 9.86441988,26.4164971 L10.2455618,26.4164971 L10.0586416,25.0229126 L9.86295957,25.0229126 C9.82061047,24.800913 9.7607376,24.5832102 9.68042034,24.3698041 L10.0119116,24.1864755 L9.12842172,23.0693163 L8.95610468,23.1652774 C8.88454931,23.0836388 8.80715267,23.0020003 8.72829573,22.9246585 C8.64213721,22.8430199 8.55305807,22.7642459 8.46251861,22.6897686 L8.65381972,22.3675111 L8.52823273,22.3173822 L10.7625129,20.4153471 L12.1629538,22.1899115 C12.2257473,22.2744145 12.303144,22.3445951 12.3922231,22.4076143 L12.2272077,22.529356 L12.3323502,22.7055234 C12.2491124,22.7757039 12.1673348,22.8487489 12.0884778,22.9246585 C12.0023193,23.0077293 11.9220021,23.0922324 11.8460657,23.1795999 L11.502892,22.98911 L10.9435918,24.2853011 L11.1275913,24.3884235 C11.0501947,24.598965 10.9917822,24.8152356 10.9508934,25.0329384 L10.5522277,25.0329384 L10.7406082,26.4265229 L10.953814,26.4265229 C10.9932425,26.6456579 11.0545756,26.8604962 11.1319723,27.0710378 L10.7873382,27.26296 L11.6693678,28.3801192 L11.8533673,28.2769968 C11.9278433,28.3614999 12.0052399,28.4431384 12.0884778,28.5233447 C12.1702554,28.603551 12.2549536,28.6780283 12.3425724,28.7496411 L12.1439698,29.0819243 L13.4859982,29.6218846 L13.5896804,29.4471494 C13.8087275,29.5244912 14.0321555,29.5817814 14.2585042,29.6204523 L14.2585042,30 L15.6998339,29.8195358 L15.6998339,29.6204523 C15.9261826,29.5817814 16.1510709,29.5244912 16.3715783,29.4485817 L16.5643397,29.7722714 L17.7194479,28.9200795 L17.6186863,28.7510733 C17.7077654,28.6794606 17.7924636,28.603551 17.8757015,28.5233447 C17.9589394,28.4431384 18.036336,28.3600676 18.1122724,28.2755645 L18.4452239,28.4617577 L19.0030638,27.1641344 L18.8322071,27.0681733 C18.911064,26.8547672 18.9709369,26.6370644 19.0118257,26.4164971 L19.3944279,26.4164971 L19.2075077,25.0229126 L19.0103654,25.0229126 C18.9694766,24.800913 18.9096037,24.5832102 18.8292865,24.3698041 L19.1593174,24.1864755 L18.2772878,23.0693163 L18.1049708,23.1652774 C18.0319551,23.0836388 17.9560188,23.0020003 17.8757015,22.9246585 C17.789543,22.8430199 17.7019242,22.7642459 17.6099244,22.6897686 L17.6376704,22.6439364 L29.9860841,22.6439364 L28.8952296,26.2990521 L32.5109667,26.2990521 L33.6032814,22.6439364 L39.7395201,22.6439364 C41.2874528,22.6439364 41.9869431,20.5972435 41.9869431,20.5972435 L34.2151529,20.5972435 L34.6663899,19.0862141 L43.3158287,19.0862141 L41.3151987,25.9195045 L43.8298591,25.9195045 L44.8666819,22.406182 L51.5812049,19.0203303 L51.5753636,19.2895944 C52.0339022,20.1618379 52.9305349,20.1131412 52.9305349,20.1131412 L56.262971,20.0587155 C56.337447,20.3437343 56.8529378,20.3551924 56.8529378,20.3551924 L60.7782614,20.3093602 C60.7782614,20.3093602 61.1696255,19.1148592 61.4981961,18.6178666 C61.8267667,18.1194417 61.3273394,18.1008224 61.3273394,18.1008224 L57.1815084,18.0750418 C56.262971,18.138061 56.2819551,18.6307569 56.2819551,18.6307569 L53.0108521,18.5734667 L53.1276772,18.2411834 L55.8555435,16.864786 L56.1125587,17.2658175 L62.256099,17.2214176 C62.256099,17.2214176 62.6489234,16.0269166 62.9760337,15.529924 C63.3046043,15.0314992 62.805177,15.0114476 62.805177,15.0114476 L59.56182,14.9956928 L63.2505727,13.135193 L58.8155996,13.135193 L57.4107777,14.0589978 L56.6265892,12.6324714 L67.1160234,12.6324714 L66.9904364,12.8043421 L63.7748253,16.5940898 L62.9307639,19.0862141 L71.3085844,19.0862141 L70.911379,20.4998501 L63.8960314,20.4998501 C62.530638,20.4998501 61.7712748,22.6367752 61.7712748,22.6367752 L70.2849044,22.6367752 L69.8789371,23.9487211 L47.6398179,23.9487211 C47.6398179,23.9487211 46.6424235,24.1578304 46.2977895,24.4371202 C45.6041404,24.9985643 45.3003951,25.8435949 45.3003951,25.8435949 L70.7565857,25.8435949 C72.2621693,25.8937239 73.3559443,25.4382667 73.5472454,24.4786556 L74.0349903,22.6367752 L78.3954873,22.6367752 C79.7886267,22.6367752 80.4983393,20.4998501 80.4983393,20.4998501 L74.5285763,20.4998501 L74.9243214,19.0862141 L81.911923,19.0862141 C80.7465926,22.8587747 79.7068492,26.2217103 79.7068492,26.2217103 L82.2229699,26.2217103 L83.0553488,23.5290702 L84.9639789,23.5290702 L86.2724201,21.3305583 L86.1424522,23.5290702 L88.2657485,23.5290702 L88.3329229,19.1721494 L92.2202783,12.9561611 L92.2626274,17.4634688 L88.5023193,23.5290702 L90.5467587,23.5290702 L92.1049135,21.0269201 L91.9749456,23.4173543 L94.019385,23.4173543 L94.3070668,18.1767319 L98.0454702,12.4247944 L96.0010308,12.4247944 L94.2690986,15.2305826 L94.2705589,12.4247944 L90.3393941,12.4247944 L88.5140018,15.5327885 L88.7126045,12.3488848 L86.5893082,12.3488848 L86.2899439,18.2211319 L83.1137613,23.3428771 L86.8623869,11.2116741 L98.6558813,11.2116741 L94.8137957,23.6450829 C94.6736055,24.0991079 94.3932253,24.3268365 93.9741152,24.3268365 L93.5272592,24.3268365 C92.3648494,24.3268365 91.7456763,26.4508712 91.7456763,26.4508712 L94.7334784,26.4508712 C96.0127133,26.5511291 96.8188066,25.8937239 97.1517581,24.4786556 L102,8.78543349 L87.030323,8.78543349 Z M48.8182911,18.8527565 L51.5300939,11.3534674 L48.8401959,11.3534674 L46.3854083,18.8441629 L48.8182911,18.8527565 Z" id="Fill-2" fill="#4D7CFE" mask="url(#mask-2)"></path>
                </g>
            </g>
        </g>
    </g>
</svg>