<?xml version="1.0" encoding="UTF-8"?>
<svg width="24px" height="24px" viewBox="0 0 24 24" version="1.1" xmlns="http://www.w3.org/2000/svg" xmlns:xlink="http://www.w3.org/1999/xlink">
    <!-- Generator: Sketch 53.2 (72643) - https://sketchapp.com -->
    <title>icon / 删除</title>
    <desc>Created with Sketch.</desc>
    <g id="四、系统管理" stroke="none" stroke-width="1" fill="none" fill-rule="evenodd">
        <g id="修改内容说明" transform="translate(-772.000000, -605.000000)">
            <g id="icon-/-删除-2" transform="translate(772.000000, 605.000000)">
                <g id="icon-/-删除">
                    <g id="Group-185">
                        <rect id="Rectangle-48-Copy-13" x="0" y="0" width="24" height="24"></rect>
                        <path d="M6.4891366,19.8506332 C6.4560005,19.8228554 6.42227269,19.7867443 6.3891366,19.7506332 C6.42582297,19.7867443 6.4560005,19.8228554 6.4891366,19.8506332 Z M6.32759714,19.7525553 C6.29337492,19.7203875 6.25959714,19.6882196 6.22759714,19.6525553 C6.25915268,19.6882196 6.29337492,19.7203875 6.32759714,19.7525553 Z M19.3485167,6.4593332 C19.2349496,6.33743644 19.0698204,6.2694825 18.9095863,6.2694825 L15.8289147,6.2694825 L15.8289147,5.2393148 C15.8289147,4.5426118 15.3015455,3.9765625 14.6524506,3.9765625 L9.39377039,3.9765625 C8.7446755,3.9765625 8.2173063,4.5426118 8.2173063,5.2393148 L8.2173063,6.2694825 L5.1209703,6.26948251 C4.79234358,6.26948251 4.5234375,6.55600995 4.5234375,6.9108416 C4.5234375,7.26567324 4.79038553,7.55220068 5.1209703,7.55220068 L5.6483395,7.55220068 L5.6483395,18.7138102 C5.6483395,19.4105132 6.17570871,19.9765625 6.82480359,19.9765625 L17.3891574,19.9765625 C18.0382523,19.9765625 18.5656215,19.4105132 18.5656215,18.7138102 L18.5656215,7.55220066 L18.9092599,7.55220066 C19.2378867,7.55220066 19.5234362,7.26567322 19.5234362,6.91084158 C19.5237625,6.74060646 19.4620839,6.58122995 19.3485167,6.4593332 Z M9.39181234,5.24316787 L14.6472292,5.24316787 L14.6472292,6.28034112 L9.39181234,6.28034112 L9.39181234,5.24316787 Z M17.3875257,18.7120588 L6.82480359,18.7120588 L6.82480359,7.55220066 L8.3468642,7.55220066 L17.3871993,7.55220066 L17.3871993,18.7120588 L17.3875257,18.7120588 Z M12.0152783,9.70150667 C11.6830618,9.70150667 11.4144821,9.9897855 11.4144821,10.3463685 L11.4144821,16.3294676 C11.4144821,16.6860506 11.6830618,16.9743295 12.0152783,16.9743295 C12.3474948,16.9743295 12.6160745,16.6860506 12.6160745,16.3294676 L12.6160745,10.3463685 C12.6160745,9.99013577 12.3474948,9.70150667 12.0152783,9.70150667 Z M8.76099261,9.70150667 C8.42877611,9.70150667 8.16019639,9.9897855 8.16019639,10.3463685 L8.16019639,16.3294676 C8.16019639,16.6860506 8.42877613,16.9743295 8.76099261,16.9743295 C9.09320909,16.9743295 9.36178883,16.6860506 9.36178883,16.3294676 L9.36178885,10.3463685 C9.36178885,9.99013577 9.09288277,9.70150667 8.76099261,9.70150667 Z M15.2362771,9.70150667 C14.9040606,9.70150667 14.6354808,9.9897855 14.6354808,10.3463685 L14.6354808,16.3294676 C14.6354808,16.6860506 14.9040606,16.9743295 15.2362771,16.9743295 C15.5684935,16.9743295 15.8370733,16.6860506 15.8370733,16.3294676 L15.8370733,10.3463685 C15.8370733,9.99013577 15.5684935,9.70150667 15.2362771,9.70150667 Z" id="Shape" fill="#4D7CFE" fill-rule="nonzero"></path>
                    </g>
                </g>
            </g>
        </g>
    </g>
</svg>