<?xml version="1.0" encoding="UTF-8"?>
<svg width="24px" height="24px" viewBox="0 0 24 24" version="1.1" xmlns="http://www.w3.org/2000/svg" xmlns:xlink="http://www.w3.org/1999/xlink">
    <!-- Generator: Sketch 53.2 (72643) - https://sketchapp.com -->
    <title>icon / 左导航 / 系统</title>
    <desc>Created with Sketch.</desc>
    <g id="四、系统管理" stroke="none" stroke-width="1" fill="none" fill-rule="evenodd">
        <g id="修改内容说明" transform="translate(-500.000000, -512.000000)">
            <g id="icon-/-左导航-/-系统-2" transform="translate(500.000000, 512.000000)">
                <g id="icon-/-左导航-/-系统">
                    <rect id="Rectangle-43-Copy-8" x="0" y="0" width="24" height="24"></rect>
                    <g id="setting" stroke-width="1" fill-rule="evenodd" transform="translate(4.000000, 5.000000)" fill="#666666">
                        <path d="M15.8924597,6.73010305 L15.8257879,6.30914273 L14.5397233,5.87941241 C14.4274339,5.53212015 14.2870722,5.19184389 14.1203926,4.86735365 L14.7274572,3.65533874 L14.478315,3.30804648 C13.9730127,2.61872396 13.3694572,2.01534751 12.6834391,1.51721114 L12.3377983,1.26814295 L11.1254236,1.87502741 C10.7990825,1.70839728 10.4604598,1.56807718 10.1130645,1.45582109 L9.68496111,0.17364613 L9.26738489,0.108748082 C8.80243657,0.0350800263 8.40065105,0 8.00062005,0 C7.61111618,0 7.20757613,0.0350800263 6.73210068,0.110502083 L6.31101542,0.177154133 L5.88291207,1.4645911 C5.52849863,1.58035519 5.18812138,1.72067529 4.87055291,1.88204341 L3.65993277,1.27340496 L3.31429194,1.52247314 C2.62651934,2.02060952 2.0229638,2.62223197 1.52117052,3.31330848 L1.27202841,3.66060075 L1.879093,4.87261565 C1.71416794,5.1971059 1.57380618,5.53562815 1.46151678,5.88292041 L0.175452194,6.30914273 L0.10878036,6.73010305 C0.0350904388,7.1949134 0,7.60885771 0,8 C0,8.39289629 0.0350904388,8.80684061 0.10878036,9.26814295 L0.175452194,9.68910327 L1.46151678,10.1188336 C1.57380618,10.4661258 1.71416794,10.8064021 1.88084752,11.1308923 L1.27729197,12.3393993 L1.52643409,12.6831835 C1.78610334,13.0445078 2.05454519,13.361982 2.34579583,13.6549002 C2.61774673,13.9285244 2.93531521,14.1968866 3.31604647,14.4757729 L3.66168729,14.724841 L4.87230743,14.1179566 C5.19864851,14.2845867 5.53727124,14.4266608 5.88466659,14.5371629 L6.31276994,15.8245999 L6.73385521,15.8912519 C7.19529448,15.96492 7.60936165,16 8.00062005,16 C8.39187844,16 8.80594562,15.96492 9.26913941,15.8912519 L9.69022468,15.8245999 L10.118328,14.5371629 C10.4622143,14.4249068 10.8008371,14.2845867 11.1289327,14.1197106 L12.3413073,14.726595 L12.6869481,14.4775269 C13.0641704,14.2056567 13.3817388,13.9372945 13.6571988,13.6566542 C13.9431859,13.370752 14.2098732,13.0515238 14.4765605,12.6849375 L14.7257026,12.3376453 L14.1186381,11.1256303 C14.2853176,10.8011401 14.4256794,10.4626178 14.5379688,10.1135716 L15.8240334,9.68384126 L15.8907052,9.26288095 C15.9643951,8.8015786 15.9994856,8.38763429 15.9994856,7.996492 C16.0047491,7.60885771 15.9696587,7.19315939 15.8924597,6.73010305 Z M14.7432479,7.98596799 L14.7432479,7.994738 C14.7432479,8.23152817 14.7274572,8.47182635 14.6976303,8.72966455 L14.0765295,8.9366367 L13.5273642,9.12256084 L13.3571755,9.67507126 C13.2606768,9.9942995 13.1325967,10.3047577 12.9764443,10.5994299 L12.7062479,11.1098443 L13.2571678,12.2096032 C13.0957518,12.4130673 12.9360903,12.5937294 12.7694107,12.7603596 L12.7659016,12.7638676 C12.6027311,12.9287437 12.4220153,13.0883578 12.2184908,13.2479719 L11.1219146,12.6989695 L10.6131032,12.9638237 C10.31308,13.1199298 9.99726601,13.2497259 9.6761885,13.351458 L9.12702313,13.5233501 L8.94806189,14.0670906 L8.74102831,14.688007 C8.4848681,14.719579 8.24274407,14.7336111 8.00588361,14.7336111 C7.77077767,14.7336111 7.52865364,14.717825 7.27073892,14.688007 L7.06370533,14.0670906 L6.88298957,13.5180881 L6.33031516,13.34795 C6.00397408,13.2479719 5.6934237,13.1199298 5.4056821,12.9673317 L4.89336169,12.7007235 L4.37577772,12.9585617 L3.79152191,13.2497259 C3.58799737,13.0883578 3.40728161,12.9287437 3.24060202,12.7621136 C3.0704134,12.5919754 2.9107519,12.4113133 2.75284492,12.2113572 L3.30025577,11.1151063 L3.03356843,10.606446 C2.87390694,10.3012497 2.74407231,9.98903749 2.64932813,9.67682526 L2.4791395,9.12431484 L1.31062789,8.73668055 C1.27904649,8.48059636 1.26501032,8.23854418 1.26501032,8.001754 C1.26501032,7.76496382 1.28080102,7.52466564 1.31062789,7.26682745 L2.47563046,6.87919316 L2.64581909,6.32843675 C2.74407231,6.01096251 2.87390694,5.69699627 3.03005939,5.39530805 L3.29674673,4.88664766 L3.04058652,4.37272528 L2.74933588,3.78864284 C3.05637722,3.40627055 3.40552709,3.05722429 3.78801287,2.75027406 L4.8863436,3.29927647 L5.39690949,3.03091427 C5.69166917,2.87656216 6.0057286,2.74676606 6.33031516,2.64503398 L6.87948053,2.47314185 L7.06195081,1.92764745 L7.2689844,1.30673098 C7.53391721,1.27691296 7.77428672,1.26112695 8.00237457,1.26112695 C8.23748051,1.26112695 8.47960454,1.27691296 8.73576474,1.30673098 L9.12526861,2.46963385 L9.67443398,2.63977198 C9.99375697,2.73975005 10.3078164,2.86954615 10.6078396,3.02389827 L11.116651,3.29050647 L12.2132272,2.74150406 C12.595713,3.04845429 12.9466174,3.39750055 13.2571678,3.78162684 L12.7097569,4.87787766 L12.9729352,5.38478404 C13.1290877,5.68647226 13.2606768,6.0021925 13.3606846,6.32317474 L13.5326277,6.87217715 L14.078284,7.05459329 L14.6993848,7.26156545 C14.7327207,7.52466564 14.7467569,7.76145582 14.7432479,7.98596799 Z M8.00412909,4.94277571 C6.31803351,4.94277571 4.94599735,6.31440474 4.94599735,8 C4.94599735,9.68559526 6.31803351,11.0572243 8.00412909,11.0572243 C9.69022468,11.0572243 11.0622608,9.68559526 11.0622608,8 C11.0622608,6.31440474 9.69022468,4.94277571 8.00412909,4.94277571 Z M9.27264845,9.26814295 C8.93402572,9.6066652 8.48311358,9.79434335 8.00412909,9.79434335 C7.5251446,9.79434335 7.07423246,9.60841921 6.73560973,9.26814295 C6.39698699,8.9296207 6.20925315,8.47884236 6.20925315,8 C6.20925315,7.52115764 6.39523247,7.0703793 6.73560973,6.73185705 C7.07423246,6.3933348 7.5251446,6.20565665 8.00412909,6.20565665 C8.48311358,6.20565665 8.93402572,6.39158079 9.27264845,6.73185705 C9.61127119,7.0721333 9.79900504,7.52115764 9.79900504,8 C9.79900504,8.47884236 9.61127119,8.9296207 9.27264845,9.26814295 Z" id="Shape" fill-rule="nonzero"></path>
                    </g>
                </g>
            </g>
        </g>
    </g>
</svg>